<?xml version="1.0" standalone="no"?><!DOCTYPE svg PUBLIC "-//W3C//DTD SVG 1.1//EN" "http://www.w3.org/Graphics/SVG/1.1/DTD/svg11.dtd"><svg t="1661844244287" class="icon" viewBox="0 0 1024 1024" version="1.1" xmlns="http://www.w3.org/2000/svg" p-id="7510" xmlns:xlink="http://www.w3.org/1999/xlink" width="48" height="48"><path d="M384 938.666667a42.666667 42.666667 0 1 1-42.666667-42.666667 42.713333 42.713333 0 0 1 42.666667 42.666667z m341.333333-42.666667a42.666667 42.666667 0 1 0 42.666667 42.666667 42.713333 42.713333 0 0 0-42.666667-42.666667z m246.533334-589.56l-168.32 448.853333a85.333333 85.333333 0 0 1-79.9 55.373334H347.146667a85.333333 85.333333 0 0 1-82.146667-62.226667L90.506667 128H21.333333a21.333333 21.333333 0 0 1 0-42.666667h85.333334a21.333333 21.333333 0 0 1 20.533333 15.56l178.873333 636a42.82 42.82 0 0 0 41.073334 31.106667h376.5a42.873333 42.873333 0 0 0 39.953333-27.686667L929.213333 298.666667H318.446667l-0.54-0.046667-0.62-0.073333-0.406667-0.046667-0.666667-0.113333-0.346666-0.066667-0.666667-0.146667-0.346667-0.08-0.666666-0.173333-0.366667-0.106667-0.593333-0.186666-0.406667-0.14-0.526667-0.2-0.466666-0.18-0.446667-0.2-0.52-0.233334-0.38-0.186666-0.566667-0.286667-0.32-0.18-0.593333-0.34-0.28-0.18-0.6-0.38-0.273333-0.193333c-0.193333-0.133333-0.386667-0.266667-0.573334-0.406667l-0.293333-0.226667c-0.173333-0.133333-0.353333-0.266667-0.52-0.413333l-0.373333-0.313333-0.42-0.366667c-0.213333-0.193333-0.42-0.393333-0.626667-0.6l-0.133333-0.12-0.12-0.126667c-0.2-0.206667-0.406667-0.42-0.6-0.633333l-0.366667-0.42c-0.106667-0.126667-0.213333-0.246667-0.313333-0.373333s-0.273333-0.34-0.406667-0.513334l-0.233333-0.3c-0.14-0.186667-0.273333-0.38-0.406667-0.573333s-0.133333-0.18-0.193333-0.273333c-0.133333-0.2-0.253333-0.4-0.38-0.593334l-0.18-0.286666-0.34-0.593334-0.18-0.32c-0.1-0.186667-0.193333-0.373333-0.286667-0.56s-0.126667-0.253333-0.186667-0.386666-0.16-0.34-0.233333-0.513334l-0.2-0.453333-0.18-0.46-0.2-0.533333-0.14-0.406667a20.28 20.28 0 0 1-0.293333-0.96c-0.033333-0.12-0.12-0.426667-0.173334-0.666667l-0.08-0.34c-0.053333-0.226667-0.1-0.446667-0.146666-0.666666 0-0.113333-0.04-0.226667-0.06-0.34-0.04-0.226667-0.086667-0.453333-0.12-0.666667s0-0.26-0.046667-0.393333-0.053333-0.42-0.073333-0.633334-0.033333-0.346667-0.04-0.52-0.033333-0.346667-0.04-0.52v-1.113333-0.993333c0-0.173333 0-0.346667 0.04-0.52s0-0.346667 0.04-0.52 0.046667-0.426667 0.073333-0.633334 0.033333-0.26 0.046667-0.393333 0.08-0.453333 0.12-0.666667c0-0.113333 0.033333-0.226667 0.06-0.34 0.046667-0.233333 0.093333-0.453333 0.146666-0.666666l0.08-0.34c0.053333-0.22 0.113333-0.433333 0.173334-0.666667s0.066667-0.246667 0.106666-0.366667 0.12-0.393333 0.186667-0.593333l0.14-0.406667 0.2-0.526666 0.18-0.466667 0.2-0.453333c0.073333-0.173333 0.153333-0.346667 0.233333-0.513334s0.126667-0.26 0.186667-0.386666 0.186667-0.373333 0.286667-0.56l0.18-0.32 0.34-0.593334 0.18-0.286666c0.126667-0.193333 0.246667-0.393333 0.38-0.593334 0.06-0.093333 0.126667-0.18 0.193333-0.273333s0.266667-0.386667 0.406667-0.573333l0.233333-0.3c0.133333-0.173333 0.266667-0.346667 0.406667-0.513334l0.313333-0.373333 0.366667-0.42c0.193333-0.213333 0.4-0.426667 0.6-0.633333l0.12-0.126667 213.333333-213.333333a21.333333 21.333333 0 0 1 30.173333 0L640 140.5l48.913333-48.92a21.333333 21.333333 0 0 1 30.173334 0L883.5 256h53.413333a37.333333 37.333333 0 0 1 34.953334 50.44zM670.173333 170.666667l85.333334 85.333333h67.66L704 136.833333z m-298.666666 85.333333h323.653333L533.333333 94.166667z" fill="#5C5C66" p-id="7511"></path></svg>