<?xml version="1.0" standalone="no"?><!DOCTYPE svg PUBLIC "-//W3C//DTD SVG 1.1//EN" "http://www.w3.org/Graphics/SVG/1.1/DTD/svg11.dtd"><svg t="1661845913957" class="icon" viewBox="0 0 1024 1024" version="1.1" xmlns="http://www.w3.org/2000/svg" p-id="12144" xmlns:xlink="http://www.w3.org/1999/xlink" width="48" height="48"><path d="M508.396373 1024c264.533333 0 477.866667-200.533333 507.733334-452.266667 4.266667-21.333333-12.8-38.4-29.866667-38.4-17.066667 0-29.866667 12.8-29.866667 29.866667-25.6 221.866667-213.333333 396.8-443.733333 396.8-192 0-354.133333-119.466667-418.133333-290.133333h89.6l-128-128c-4.266667-4.266667-12.8-8.533333-21.333334-8.533334-21.333333 0-34.133333 17.066667-29.866666 38.4C30.529707 823.466667 248.129707 1024 508.396373 1024M0.66304 452.266667c-4.266667 21.333333 12.8 38.4 29.866667 38.4 17.066667 0 29.866667-12.8 29.866666-29.866667 25.6-221.866667 213.333333-396.8 443.733334-396.8 192 0 354.133333 119.466667 418.133333 290.133333h-89.6l128 128c4.266667 4.266667 12.8 8.533333 21.333333 8.533334 21.333333 0 34.133333-17.066667 29.866667-38.4C986.26304 200.533333 772.929707 0 508.396373 0S30.529707 200.533333 0.66304 452.266667z" fill="#444444" p-id="12145"></path><path d="M252.396373 486.4l-17.066666-51.2C290.796373 384 329.196373 328.533333 354.796373 268.8l51.2 8.533333c-8.533333 17.066667-12.8 29.866667-21.333333 42.666667h119.466667c-8.533333-17.066667-17.066667-34.133333-25.6-46.933333l55.466666-8.533334c8.533333 17.066667 17.066667 34.133333 21.333334 55.466667h157.866666v42.666667h-162.133333v29.866666h136.533333v42.666667h-136.533333v29.866667h140.8v42.666666h-140.8v29.866667h170.666667v42.666667H307.86304v-149.333334c-17.066667 21.333333-34.133333 38.4-55.466667 55.466667z m439.466667 298.666667H640.66304v-25.6H359.06304v25.6H307.86304v-170.666667h384v170.666667z m-192-422.4H359.06304v29.866666h140.8v-29.866666z m0 72.533333H359.06304v29.866667h140.8v-29.866667z m0 72.533333H359.06304v29.866667h140.8v-29.866667z m140.8 209.066667v-55.466667H359.06304v55.466667H640.66304z" fill="#444444" p-id="12146"></path></svg>